HIERARCHY
ROOT pelvis
{
	OFFSET 0.000000 0.000000 0.722426
	CHANNELS 6 Xposition Yposition Zposition Xrotation Yrotation Zrotation
	JOINT spine
	{
		OFFSET 0.000000 0.000000 0.000000
		CHANNELS 6 Xposition Yposition Zposition Xrotation Yrotation Zrotation
		JOINT spine.001
		{
			OFFSET 0.000000 -0.014128 0.269571
			CHANNELS 3 Xrotation Yrotation Zrotation
			JOINT neck
			{
				OFFSET 0.000000 0.032897 0.267929
				CHANNELS 6 Xposition Yposition Zposition Xrotation Yrotation Zrotation
				JOINT face
				{
					OFFSET 0.000000 0.003728 0.213601
					CHANNELS 6 Xposition Yposition Zposition Xrotation Yrotation Zrotation
					End Site
					{
						OFFSET -0.000000 -0.029791 -0.007726
					}
				}
			}
			JOINT shoulder.L
			{
				OFFSET 0.000000 0.032897 0.267929
				CHANNELS 6 Xposition Yposition Zposition Yrotation Xrotation Zrotation
				JOINT upper_arm.L
				{
					OFFSET 0.165472 0.000000 0.000000
					CHANNELS 6 Xposition Yposition Zposition Xrotation Yrotation Zrotation
					JOINT forearm.L
					{
						OFFSET 0.277966 0.000115 0.000956
						CHANNELS 6 Xposition Yposition Zposition Xrotation Yrotation Zrotation
						End Site
						{
							OFFSET 0.243847 -0.004151 -0.001318
						}
					}
				}
			}
			JOINT shoulder.R
			{
				OFFSET 0.000000 0.032897 0.267929
				CHANNELS 6 Xposition Yposition Zposition Yrotation Xrotation Zrotation
				JOINT upper_arm.R
				{
					OFFSET -0.165472 0.000000 0.000000
					CHANNELS 6 Xposition Yposition Zposition Xrotation Yrotation Zrotation
					JOINT forearm.R
					{
						OFFSET -0.272947 0.000115 0.000956
						CHANNELS 6 Xposition Yposition Zposition Xrotation Yrotation Zrotation
						End Site
						{
							OFFSET -0.239788 -0.004080 -0.001317
						}
					}
				}
			}
		}
	}
	JOINT pelvis.L
	{
		OFFSET 0.000000 0.000000 0.000000
		CHANNELS 6 Xposition Yposition Zposition Yrotation Xrotation Zrotation
		End Site
		{
			OFFSET 0.108032 0.000000 0.000000
		}
	}
	JOINT pelvis.R
	{
		OFFSET 0.000000 0.000000 0.000000
		CHANNELS 6 Xposition Yposition Zposition Yrotation Xrotation Zrotation
		End Site
		{
			OFFSET -0.108032 0.000000 0.000000
		}
	}
	JOINT thigh.L
	{
		OFFSET 0.108032 0.000000 0.000000
		CHANNELS 6 Xposition Yposition Zposition Xrotation Yrotation Zrotation
		JOINT shin.L
		{
			OFFSET 0.018006 0.000000 -0.343568
			CHANNELS 6 Xposition Yposition Zposition Xrotation Yrotation Zrotation
			JOINT foot.L
			{
				OFFSET 0.015897 0.000000 -0.303337
				CHANNELS 3 Xrotation Yrotation Zrotation
				End Site
				{
					OFFSET 0.015716 -0.160240 -0.067288
				}
			}
			JOINT heel.02.L
			{
				OFFSET 0.015897 0.000000 -0.303337
				CHANNELS 3 Xrotation Yrotation Zrotation
				End Site
				{
					OFFSET -0.075855 0.034374 -0.078711
				}
			}
		}
	}
	JOINT thigh.R
	{
		OFFSET -0.108032 0.000000 0.000000
		CHANNELS 6 Xposition Yposition Zposition Xrotation Yrotation Zrotation
		JOINT shin.R
		{
			OFFSET -0.017866 0.000000 -0.340909
			CHANNELS 6 Xposition Yposition Zposition Xrotation Yrotation Zrotation
			JOINT foot.R
			{
				OFFSET -0.016267 0.000000 -0.310392
				CHANNELS 3 Xrotation Yrotation Zrotation
				End Site
				{
					OFFSET -0.017674 -0.180207 -0.075672
				}
			}
			JOINT heel.02.R
			{
				OFFSET -0.016267 0.000000 -0.310392
				CHANNELS 3 Xrotation Yrotation Zrotation
				End Site
				{
					OFFSET 0.073097 0.034374 -0.074158
				}
			}
		}
	}
}
MOTION
Frames: 9
Frame Time: 0.041667
-0.013677 0.025649 0.709620 -0.000000 0.000000 0.668972 0.000000 -0.000000 0.000000 -8.936612 -0.674336 -0.088400 9.999851 -0.040222 -0.327471 -0.000000 0.032897 0.267929 5.803584 1.833731 23.049114 -0.000000 0.003728 0.213600 3.682024 0.000000 0.000004 0.000000 0.032897 0.267929 0.391655 0.000165 -0.048138 0.165472 -0.000000 -0.000000 34.179653 77.212338 -42.105517 0.277966 0.000115 0.000956 0.990981 7.202821 -14.960392 0.000000 0.032897 0.267929 0.443085 0.000210 -0.054479 -0.165473 0.000000 -0.000000 39.484316 -77.712096 48.006138 -0.272947 0.000115 0.000956 1.548750 -9.017451 18.778154 0.000000 -0.000000 0.000000 -0.805968 -0.000000 0.000060 0.000000 -0.000000 0.000000 -0.805968 -0.000000 0.000000 0.108022 -0.000000 0.001520 1.268187 -0.740767 0.074639 0.018006 0.000000 -0.343568 1.511229 2.301218 0.048902 -2.388378 -6.001172 12.774256 2.093353 -23.009067 -14.430192 -0.108022 0.000000 -0.001520 1.396411 -2.262780 -0.045654 -0.017866 0.000000 -0.340909 6.614886 -2.178846 -0.221347 -12.101377 8.502153 -12.973681 -1.283124 22.208623 11.704593 
-0.013389 0.024100 0.709369 -0.000000 0.000000 0.682512 0.000000 0.000000 -0.000000 -8.947175 -0.695196 -0.091199 9.999856 -0.037482 -0.305355 0.000000 0.032898 0.267928 5.978534 1.887867 22.713005 0.000000 0.003728 0.213600 3.631018 -0.000002 -0.000002 0.000000 0.032898 0.267929 0.371347 0.000147 -0.045549 0.165472 -0.000000 -0.000000 34.905497 77.151256 -43.012563 0.277966 0.000115 0.000956 0.972417 7.124283 -14.842706 0.000000 0.032898 0.267929 0.422736 0.000191 -0.051902 -0.165472 0.000000 -0.000000 38.809483 -77.670685 47.248117 -0.272947 0.000115 0.000956 1.577723 -9.072883 19.023892 0.000000 -0.000000 -0.000000 -0.745553 -0.000000 0.000005 0.000000 -0.000000 -0.000000 -0.745584 -0.000000 0.000000 0.108023 -0.000000 0.001406 1.466467 -0.673468 0.085451 0.018006 0.000000 -0.343568 1.394991 2.223853 0.046082 -2.424972 -6.003672 12.760891 2.160648 -22.987473 -14.472971 -0.108023 0.000000 -0.001406 1.530269 -2.284679 -0.049737 -0.017866 0.000000 -0.340909 6.526244 -2.162335 -0.219315 -11.934320 8.547547 -13.129941 -1.253123 22.221968 11.741957 
-0.013135 0.022799 0.709167 -0.000000 0.000000 0.720617 0.000000 0.000000 -0.000000 -8.950977 -0.702736 -0.092212 9.999826 -0.034402 -0.280280 0.000000 0.032897 0.267929 6.163646 1.893368 22.165408 -0.000000 0.003728 0.213601 3.562240 0.000001 0.000002 0.000000 0.032897 0.267929 0.341729 0.000125 -0.042013 0.165472 -0.000000 0.000000 35.850273 77.022868 -44.227572 0.277966 0.000115 0.000956 0.951391 6.987301 -14.830173 0.000000 0.032897 0.267929 0.393160 0.000165 -0.048351 -0.165472 0.000000 -0.000000 38.062182 -77.601707 46.422979 -0.272947 0.000115 0.000956 1.613281 -9.169594 19.250583 0.000000 0.000000 0.000000 -0.675748 0.000000 -0.000052 0.000000 0.000000 0.000000 -0.675749 -0.000000 0.000000 0.108025 -0.000000 0.001274 1.631295 -0.587710 0.093840 0.018006 -0.000000 -0.343568 1.304567 2.135433 0.044100 -2.538353 -6.022612 12.743890 2.266405 -22.978215 -14.556974 -0.108025 0.000000 -0.001274 1.631773 -2.294916 -0.052893 -0.017866 0.000000 -0.340909 6.479103 -2.179254 -0.216770 -11.802617 8.598894 -13.281239 -1.226546 22.267627 11.800023 
-0.012713 0.021581 0.709090 -0.000000 0.000000 0.696919 -0.000000 -0.000000 -0.000000 -8.942067 -0.730551 -0.095805 10.000008 -0.024328 -0.198093 0.000000 0.032897 0.267929 6.306923 1.889357 21.533228 -0.000000 0.003728 0.213601 3.500586 0.000000 -0.000006 0.000000 0.032898 0.267929 0.323405 0.000111 -0.039689 0.165472 -0.000000 -0.000000 36.572166 76.883177 -45.186486 0.277966 0.000115 0.000956 0.944426 6.871213 -15.013254 0.000000 0.032898 0.267929 0.374836 0.000150 -0.046017 -0.165473 0.000000 -0.000000 37.253812 -77.528828 45.525656 -0.272947 0.000115 0.000956 1.654737 -9.306298 19.450169 0.000000 -0.000000 0.000000 -0.627727 0.000001 0.000111 0.000000 -0.000000 0.000000 -0.627696 0.000000 0.000000 0.108026 0.000000 0.001184 1.815581 -0.447938 0.102234 0.018006 -0.000000 -0.343568 1.187214 1.987981 0.041660 -2.655193 -6.053917 12.751914 2.369909 -22.938589 -14.618329 -0.108026 0.000000 -0.001183 1.691697 -2.264445 -0.055285 -0.017866 -0.000000 -0.340909 6.506045 -2.227988 -0.214904 -11.808727 8.603530 -13.286606 -1.239911 22.328732 11.832994 
-0.012044 0.020255 0.709125 -0.000000 0.000000 0.601813 0.000000 0.000000 -0.000000 -8.935543 -0.784965 -0.102895 10.000007 0.003595 0.029250 0.000000 0.032897 0.267929 6.407745 1.859776 20.869319 -0.000000 0.003728 0.213601 3.496541 -0.000001 0.000001 0.000000 0.032897 0.267928 0.317955 0.000111 -0.039144 0.165472 0.000000 -0.000000 37.134342 76.745576 -45.955391 0.277966 0.000115 0.000956 0.953455 6.832259 -15.280875 0.000000 0.032897 0.267929 0.369387 0.000148 -0.045408 -0.165472 0.000000 -0.000000 36.295164 -77.480819 44.429291 -0.272947 0.000115 0.000956 1.700988 -9.464371 19.652042 0.000000 -0.000000 -0.000000 -0.617010 0.000000 0.000062 0.000000 -0.000000 -0.000000 -0.617042 0.000000 0.000000 0.108026 0.000000 0.001163 2.016914 -0.270710 0.110464 0.018006 0.000000 -0.343568 1.058671 1.792201 0.038957 -2.715014 -6.079388 12.776389 2.379660 -22.891987 -14.594994 -0.108026 0.000000 -0.001163 1.727208 -2.193960 -0.057509 -0.017866 -0.000000 -0.340909 6.607248 -2.281941 -0.215142 -11.919635 8.563956 -13.165605 -1.306230 22.353059 11.790292 
-0.011255 0.018896 0.709224 -0.000000 0.000000 0.528253 0.000000 -0.000000 0.000000 -8.924746 -0.836994 -0.109635 9.999796 0.040770 0.332044 0.000000 0.032897 0.267928 6.442203 1.769330 20.228869 0.000000 0.003728 0.213601 3.590894 -0.000000 0.000002 0.000000 0.032897 0.267929 0.323524 0.000111 -0.039847 0.165472 0.000000 -0.000000 37.796027 76.586153 -46.860435 0.277966 0.000115 0.000956 0.966087 6.843568 -15.476891 0.000000 0.032897 0.267929 0.374957 0.000150 -0.046085 -0.165473 0.000000 0.000000 35.298390 -77.450712 43.270836 -0.272947 0.000115 0.000956 1.748376 -9.633242 19.834682 0.000000 0.000000 0.000000 -0.627095 -0.000001 -0.000096 0.000000 0.000000 0.000000 -0.627095 -0.000000 0.000000 0.108026 -0.000000 0.001182 2.151832 -0.112967 0.114902 0.018006 -0.000000 -0.343568 1.027539 1.622534 0.039331 -2.760823 -6.088262 12.772134 2.261367 -22.913065 -14.508345 -0.108026 0.000000 -0.001182 1.766615 -2.120261 -0.059956 -0.017866 0.000000 -0.340909 6.733942 -2.301906 -0.218102 -11.995201 8.534627 -13.079271 -1.392644 22.304492 11.675126 
-0.010519 0.017661 0.709387 -0.000000 0.000000 0.566137 0.000000 -0.000000 -0.000000 -8.888123 -0.857307 -0.112017 9.999756 0.064044 0.521525 0.000000 0.032897 0.267929 6.361708 1.622491 19.701250 0.000000 0.003728 0.213601 3.778995 0.000000 0.000001 0.000000 0.032898 0.267929 0.344330 0.000127 -0.042171 0.165472 -0.000000 -0.000000 38.528571 76.417604 -47.858398 0.277966 0.000115 0.000956 0.967377 6.826903 -15.546303 0.000000 0.032898 0.267929 0.395718 0.000168 -0.048583 -0.165472 -0.000000 -0.000000 34.509500 -77.409792 42.362930 -0.272947 0.000115 0.000956 1.792797 -9.812776 19.949809 0.000000 0.000000 0.000000 -0.634714 0.000000 -0.000008 0.000000 0.000000 0.000000 -0.634746 0.000000 0.000000 0.108026 -0.000000 0.001197 2.178024 -0.006801 0.114288 0.018006 0.000000 -0.343568 1.136829 1.528594 0.044445 -2.886790 -6.086688 12.704511 2.125953 -23.011075 -14.459429 -0.108026 0.000000 -0.001197 1.848839 -2.077989 -0.063429 -0.017866 -0.000000 -0.340909 6.789677 -2.266252 -0.222025 -12.000005 8.540177 -13.086860 -1.460159 22.223904 11.553519 
-0.009902 0.016388 0.709663 -0.000000 0.000000 0.707443 0.000000 0.000000 0.000000 -8.844058 -0.844892 -0.110065 9.999720 0.061281 0.499160 0.000000 0.032897 0.267929 6.192200 1.461462 19.320785 -0.000000 0.003728 0.213600 4.010331 0.000000 -0.000001 0.000000 0.032897 0.267929 0.378360 0.000154 -0.046447 0.165472 0.000000 -0.000000 39.063785 76.316033 -48.572105 0.277966 0.000115 0.000956 0.953657 6.746567 -15.522443 0.000000 0.032897 0.267929 0.429833 0.000199 -0.052782 -0.165472 -0.000000 -0.000000 34.022381 -77.358757 41.818390 -0.272947 0.000115 0.000956 1.828559 -9.979003 19.989232 0.000000 0.000000 0.000000 -0.631679 -0.000000 -0.000055 0.000000 0.000000 0.000000 -0.631711 -0.000000 0.000000 0.108026 0.000000 0.001191 2.188079 0.062265 0.113501 0.018006 -0.000000 -0.343568 1.258080 1.486146 0.049652 -3.095490 -6.078935 12.582166 2.128539 -23.101097 -14.523100 -0.108026 0.000000 -0.001191 2.018821 -2.057402 -0.069624 -0.017866 0.000000 -0.340909 6.694988 -2.204583 -0.222529 -12.088551 8.542570 -13.050585 -1.524788 22.196083 11.473569 
-0.009361 0.014677 0.710071 -0.000000 0.000000 0.870499 0.000000 0.000000 -0.000000 -8.856318 -0.823530 -0.107371 9.999802 0.042511 0.346260 0.000000 0.032897 0.267929 6.062472 1.331235 19.030869 0.000000 0.003728 0.213600 4.216468 -0.000000 0.000000 0.000000 0.032897 0.267929 0.414562 0.000184 -0.050927 0.165472 -0.000000 0.000000 39.246424 76.341537 -48.769630 0.277966 0.000115 0.000956 0.936498 6.656481 -15.462061 0.000000 0.032897 0.267929 0.465992 0.000232 -0.057268 -0.165472 -0.000000 -0.000000 33.710983 -77.344003 41.457384 -0.272947 0.000115 0.000956 1.847597 -10.077574 19.986551 0.000000 0.000000 0.000000 -0.616220 0.000001 0.000100 0.000000 0.000000 0.000000 -0.616188 -0.000000 0.000000 0.108026 0.000000 0.001162 2.312693 0.118695 0.118829 0.018006 0.000000 -0.343568 1.238634 1.447281 0.049304 -3.277353 -6.057578 12.445177 2.275559 -23.116482 -14.659060 -0.108026 0.000000 -0.001162 2.296529 -2.009060 -0.080173 -0.017866 -0.000000 -0.340909 6.456849 -2.195514 -0.215108 -12.368364 8.510137 -12.866672 -1.637875 22.240715 11.402625 
